<svg width="249" height="50" viewBox="0 0 249 50" fill="none" xmlns="http://www.w3.org/2000/svg">
<path d="M26.5639 0.501221L0 49.6193H26.5639L39.8458 23.8072L52.8771 49.6193H79.441L52.8771 0.501221H26.5639Z" fill="#27272A"/>
<path d="M78.6893 0L66.1592 25.3108H91.47L104 0H78.6893Z" fill="#666CFF"/>
<path d="M119.575 44V16.28H126.78L127.44 20.735C128.283 19.195 129.475 17.9667 131.015 17.05C132.555 16.0967 134.425 15.62 136.625 15.62C138.935 15.62 140.878 16.115 142.455 17.105C144.032 18.095 145.223 19.525 146.03 21.395C146.873 23.2283 147.295 25.4833 147.295 28.16V44H139.1V28.93C139.1 26.9133 138.66 25.355 137.78 24.255C136.937 23.1183 135.58 22.55 133.71 22.55C132.61 22.55 131.602 22.825 130.685 23.375C129.805 23.8883 129.108 24.64 128.595 25.63C128.082 26.62 127.825 27.8117 127.825 29.205V44H119.575ZM154.425 44V5.5H169.385C172.502 5.5 175.087 6.05 177.14 7.15C179.23 8.21333 180.77 9.64333 181.76 11.44C182.787 13.2367 183.3 15.235 183.3 17.435C183.3 19.4883 182.805 21.4133 181.815 23.21C180.862 25.0067 179.358 26.455 177.305 27.555C175.252 28.655 172.593 29.205 169.33 29.205H162.675V44H154.425ZM174.28 44L166.525 27.17H175.38L183.63 44H174.28ZM162.675 23.265H168.89C170.943 23.265 172.447 22.77 173.4 21.78C174.39 20.79 174.885 19.4517 174.885 17.765C174.885 16.115 174.39 14.8133 173.4 13.86C172.447 12.87 170.943 12.375 168.89 12.375H162.675V23.265ZM201.674 44.66C198.814 44.66 196.303 44.0733 194.139 42.9C191.976 41.69 190.271 40.0217 189.024 37.895C187.814 35.7317 187.209 33.2567 187.209 30.47C187.209 27.61 187.814 25.0617 189.024 22.825C190.234 20.5883 191.921 18.8283 194.084 17.545C196.248 16.2617 198.759 15.62 201.619 15.62C204.406 15.62 206.844 16.225 208.934 17.435C211.024 18.645 212.656 20.295 213.829 22.385C215.039 24.4383 215.644 26.8217 215.644 29.535C215.644 29.9017 215.626 30.3233 215.589 30.8C215.589 31.24 215.553 31.6983 215.479 32.175H193.094V27.39H207.229C207.156 25.85 206.588 24.6217 205.524 23.705C204.498 22.7517 203.214 22.275 201.674 22.275C200.501 22.275 199.438 22.55 198.484 23.1C197.531 23.65 196.761 24.475 196.174 25.575C195.624 26.675 195.349 28.0683 195.349 29.755V31.405C195.349 32.6883 195.588 33.825 196.064 34.815C196.578 35.805 197.293 36.575 198.209 37.125C199.163 37.675 200.281 37.95 201.564 37.95C202.774 37.95 203.764 37.7117 204.534 37.235C205.341 36.7217 205.964 36.08 206.404 35.31H214.819C214.306 37.07 213.426 38.665 212.179 40.095C210.933 41.4883 209.411 42.6067 207.614 43.45C205.818 44.2567 203.838 44.66 201.674 44.66ZM228.047 44L217.982 16.28H226.672L233.107 36.245L239.542 16.28H248.122L238.112 44H228.047Z" fill="black"/>
</svg>
