<svg width="139" height="24" viewBox="0 0 139 24" fill="none" xmlns="http://www.w3.org/2000/svg">
<path d="M29.0099 0.378906V20.3439H23.7956V2.34884L24.9601 2.48196L17.2841 20.3438H11.7257L4.02334 2.53519L5.2144 2.40208V20.3438H0V0.378906H8.47013L15.5901 17.5221H13.4727L20.5399 0.378906H29.0099Z" fill="#767676"/>
<path d="M37.9273 11.4262C37.9273 12.3313 38.0994 13.1166 38.4434 13.7821C38.782 14.4422 39.3193 14.9779 39.9786 15.3126C40.6577 15.6679 41.4916 15.8454 42.48 15.8451C43.4858 15.8451 44.324 15.6677 44.9945 15.3126C45.6464 14.9766 46.1748 14.4406 46.5032 13.7821C46.8382 13.1165 47.006 12.3313 47.0062 11.4262V0.378906H52.5117V11.6923C52.5117 13.5205 52.0926 15.1131 51.2544 16.4706C50.4056 17.8378 49.1898 18.9359 47.7473 19.6383C46.2472 20.3925 44.4914 20.7697 42.48 20.7697C40.4857 20.7697 38.7342 20.3926 37.2258 19.6383C35.7778 18.939 34.557 17.8405 33.7054 16.4706C32.8672 15.113 32.4481 13.5202 32.4482 11.6923V0.378906H37.9273V11.4262Z" fill="#767676"/>
<path d="M59.7432 9.11032H66.9692C67.8513 9.11032 68.5396 8.90619 69.0337 8.49805C69.5276 8.09005 69.7745 7.52219 69.7749 6.79432C69.7749 6.04899 69.5279 5.47659 69.0337 5.07739C68.5395 4.67805 67.8513 4.47845 66.9692 4.47845H58.9756L61.4371 1.84305V20.3438H55.958V0.378906H67.7368C69.2542 0.378906 70.5776 0.649559 71.7071 1.19088C72.7751 1.68043 73.6898 2.45349 74.3538 3.42695C74.9897 4.37645 75.3071 5.49899 75.3071 6.79432C75.3071 8.05459 74.9897 9.16379 74.3538 10.1218C73.6951 11.0999 72.7791 11.8742 71.7071 12.3579C70.5776 12.8902 69.2542 13.1565 67.7368 13.1565H59.7432V9.11032ZM62.3664 13.1565H61.4371L65.8745 12.5913C67.0431 12.4425 68.2299 12.6043 69.3168 13.0606C70.4037 13.517 71.3528 14.2518 72.0697 15.1921L75.9951 20.3438H69.6425L65.4694 14.7211C65.109 14.2355 64.6407 13.8411 64.102 13.5695C63.5633 13.2979 62.9691 13.1565 62.3664 13.1565Z" fill="#767676"/>
<path d="M96.0242 0.378906V5.03739H81.3069L83.9282 2.40208V20.3438H78.4482V0.378906H96.0242ZM86.9336 8.55125H95.5216V13.2097H86.9096C86.1056 13.2097 85.3336 13.5313 84.7642 14.1035C84.1949 14.6758 83.8749 15.4519 83.8749 16.2613V18.6262L83.4042 12.381C83.3669 11.8922 83.4309 11.4009 83.5909 10.9381C83.7522 10.4753 84.0056 10.0507 84.3376 9.69112C84.6696 9.33165 85.0709 9.04485 85.5176 8.84872C85.9642 8.65245 86.4469 8.55125 86.9336 8.55125Z" fill="#767676"/>
<path d="M121.856 0.867241L130.882 20.8322H125.033L117.462 3.20979H119.05L111.454 20.8322H105.604L114.63 0.867188L121.856 0.867241ZM111.295 16.9989V12.5534H118.896C119.986 12.5534 121.044 12.9098 121.914 13.5689C122.783 14.2279 123.415 15.1537 123.715 16.2062L125.033 20.8322L124.398 19.3085C124.112 18.6242 123.632 18.0399 123.019 17.629C122.404 17.2181 121.683 16.9989 120.946 16.9989H111.295Z" fill="#767676"/>
<path d="M132.771 0.867188H138.249V20.8322H132.771V0.867188Z" fill="#767676"/>
<path d="M99.3073 23.6249C101.117 23.6249 102.583 22.1497 102.583 20.3301C102.583 18.5104 101.117 17.0352 99.3073 17.0352C97.4979 17.0352 96.0312 18.5104 96.0312 20.3301C96.0312 22.1497 97.4979 23.6249 99.3073 23.6249Z" fill="#767676"/>
</svg>
