<svg width="139" height="24" viewBox="0 0 139 24" fill="none" xmlns="http://www.w3.org/2000/svg">
<path d="M29.0099 0.375V20.34H23.7956V2.34493L24.9601 2.47805L17.2841 20.3399H11.7257L4.02334 2.53128L5.2144 2.39817V20.3399H0V0.375H8.47013L15.5901 17.5181H13.4727L20.5399 0.375H29.0099Z" fill="#DBDBDB"/>
<path d="M37.9268 11.4223C37.9268 12.3273 38.099 13.1127 38.443 13.7781C38.7815 14.4383 39.3188 14.974 39.9782 15.3087C40.6572 15.664 41.4911 15.8415 42.4795 15.8412C43.4854 15.8412 44.3235 15.6637 44.994 15.3087C45.6459 14.9727 46.1743 14.4367 46.5027 13.7781C46.8378 13.1125 47.0055 12.3273 47.0058 11.4223V0.375H52.5112V11.6884C52.5112 13.5165 52.0922 15.1092 51.2539 16.4667C50.4051 17.8339 49.1894 18.932 47.7468 19.6344C46.2467 20.3885 44.491 20.7657 42.4795 20.7657C40.4852 20.7657 38.7338 20.3887 37.2254 19.6344C35.7774 18.9351 34.5566 17.8365 33.705 16.4667C32.8667 15.1091 32.4476 13.5163 32.4478 11.6884V0.375H37.9268V11.4223Z" fill="#DBDBDB"/>
<path d="M59.7437 9.10641H66.9697C67.8518 9.10641 68.5401 8.90228 69.0342 8.49415C69.5281 8.08615 69.775 7.51828 69.7754 6.79041C69.7754 6.04508 69.5284 5.47268 69.0342 5.07348C68.54 4.67415 67.8518 4.47455 66.9697 4.47455H58.9761L61.4376 1.83915V20.3399H55.9585V0.375H67.7373C69.2546 0.375 70.5781 0.645653 71.7076 1.18697C72.7756 1.67652 73.6902 2.44959 74.3542 3.42304C74.9902 4.37255 75.3076 5.49508 75.3076 6.79041C75.3076 8.05068 74.9902 9.15988 74.3542 10.1179C73.6956 11.096 72.7796 11.8703 71.7076 12.354C70.5781 12.8863 69.2546 13.1525 67.7373 13.1525H59.7437V9.10641ZM62.3669 13.1525H61.4376L65.875 12.5873C67.0436 12.4385 68.2304 12.6004 69.3173 13.0567C70.4042 13.5131 71.3533 14.2479 72.0702 15.1881L75.9956 20.3399H69.643L65.4698 14.7172C65.1094 14.2316 64.6412 13.8372 64.1025 13.5656C63.5638 13.294 62.9696 13.1525 62.3669 13.1525Z" fill="#DBDBDB"/>
<path d="M96.0238 0.375V5.03348H81.3064L83.9278 2.39817V20.3399H78.4478V0.375H96.0238ZM86.9331 8.54735H95.5211V13.2057H86.9091C86.1051 13.2057 85.3331 13.5273 84.7638 14.0996C84.1944 14.6719 83.8744 15.448 83.8744 16.2573V18.6223L83.4037 12.3771C83.3664 11.8883 83.4304 11.3969 83.5904 10.9341C83.7517 10.4713 84.0051 10.0468 84.3371 9.68721C84.6691 9.32775 85.0704 9.04095 85.5171 8.84481C85.9637 8.64855 86.4464 8.54735 86.9331 8.54735Z" fill="#DBDBDB"/>
<path d="M121.856 0.867241L130.881 20.8322H125.032L117.461 3.20979H119.049L111.453 20.8322H105.604L114.629 0.867188L121.856 0.867241ZM111.295 16.9989V12.5534H118.896C119.985 12.5534 121.044 12.9098 121.913 13.5689C122.783 14.2279 123.415 15.1537 123.715 16.2062L125.032 20.8322L124.397 19.3085C124.112 18.6242 123.632 18.0399 123.019 17.629C122.404 17.2181 121.683 16.9989 120.945 16.9989H111.295Z" fill="#DBDBDB"/>
<path d="M132.771 0.867188H138.25V20.8322H132.771V0.867188Z" fill="#DBDBDB"/>
<path d="M99.3073 23.621C101.117 23.621 102.583 22.1458 102.583 20.3262C102.583 18.5065 101.117 17.0312 99.3073 17.0312C97.4979 17.0312 96.0312 18.5065 96.0312 20.3262C96.0312 22.1458 97.4979 23.621 99.3073 23.621Z" fill="#DBDBDB"/>
</svg>
